<svg id="Layer_1" data-name="Layer 1" xmlns="http://www.w3.org/2000/svg" width="1920" height="1080" viewBox="0 0 1920 1080"><title>Artboard 1</title><path d="M602.59,561.22q0,21.27-15.31,33.51T544.69,607q-25.14,0-44.47-9.45V566.59a184.85,184.85,0,0,0,26.91,10,79.75,79.75,0,0,0,20.14,2.9q11,0,16.81-4.19t5.85-12.46a13.75,13.75,0,0,0-2.57-8.22,28.9,28.9,0,0,0-7.58-6.93q-5-3.33-20.35-10.63-14.4-6.76-21.6-13a48.84,48.84,0,0,1-11.49-14.5,41.46,41.46,0,0,1-4.3-19.34q0-20.83,14.13-32.76t39.05-11.93a92.35,92.35,0,0,1,23.36,2.9,161.34,161.34,0,0,1,23.26,8.17L591.1,482.48a156.78,156.78,0,0,0-20.79-7.2,67,67,0,0,0-16.17-2q-9.45,0-14.5,4.4a14.53,14.53,0,0,0-5,11.5,14.26,14.26,0,0,0,2,7.68,22.64,22.64,0,0,0,6.5,6.34q4.46,3.06,21.11,11,22,10.53,30.19,21.1T602.59,561.22Z"/><path d="M691.64,604.83h-33.3V475.49H615.7V447.78H734.29v27.71H691.64Z"/><path d="M901,526.09q0,39-19.34,59.94t-55.43,21q-36.09,0-55.43-21t-19.33-60.15q0-39.21,19.39-59.89t55.59-20.68q36.19,0,55.37,20.84T901,526.09Zm-114.62,0q0,26.32,10,39.64t29.86,13.32q39.85,0,39.86-53T826.46,473q-19.87,0-30,13.38T786.39,526.09Z"/><path d="M933.56,604.83V447.78h33.3V577.33h63.7v27.5Z"/><path d="M1118.43,604.83h-33.3V475.49h-42.65V447.78h118.6v27.71h-42.65Z"/><path d="M1287.62,604.83H1170.75V583.24l75.3-108h-73.26v-27.5h112.79v21.48l-75.2,108.07h77.24Z"/><path d="M1403.1,604.83h-90.45V447.78h90.45v27.28H1346v34.49h53.17v27.28H1346v40.5h57.15Z"/></svg>
