<svg id="Layer_1" data-name="Layer 1" xmlns="http://www.w3.org/2000/svg" width="1072" height="183" viewBox="0 0 1072 183"><defs><style>.cls-1{fill:#fff;}</style></defs><title>Artboard 1</title><path class="cls-1" d="M16.88,120.85h2.47a90.52,90.52,0,0,0,6.41,20.47,59.17,59.17,0,0,0,8.66,13.73,38.3,38.3,0,0,0,9.91,8.32,42.11,42.11,0,0,0,10.46,4.28,49.67,49.67,0,0,0,10.12,1.57c3.23.15,6.26.23,9.11.23q11.92,0,19.58-3.6a34.14,34.14,0,0,0,12.15-9.11,32.75,32.75,0,0,0,6.3-11.93,43.91,43.91,0,0,0,1.8-11.81,28.93,28.93,0,0,0-2.93-13.5,32.35,32.35,0,0,0-7.42-9.56,41.67,41.67,0,0,0-9.79-6.42,68.38,68.38,0,0,0-10-3.82L57.83,91.82Q39.59,86.21,30.26,77T20.92,52.22a48.41,48.41,0,0,1,3.6-18.78,44,44,0,0,1,10.13-15,47.29,47.29,0,0,1,15.64-9.9A53.9,53.9,0,0,1,70.2,5,54.17,54.17,0,0,1,83.36,6.32a59.6,59.6,0,0,1,9.12,3l6.86,3a15,15,0,0,0,6.18,1.35c2,0,3.27-.26,3.94-.79A14.77,14.77,0,0,0,112.27,9h3.15V49.75h-2.69a66.79,66.79,0,0,0-4.62-15.64,48.13,48.13,0,0,0-8.44-13.27,39.55,39.55,0,0,0-12.48-9.23,39.15,39.15,0,0,0-17-3.49A54.68,54.68,0,0,0,58.27,9.59a37.38,37.38,0,0,0-12.14,5.06,30.21,30.21,0,0,0-9.34,9.45Q33.07,30,33.08,39A24.11,24.11,0,0,0,36,51.21a28.26,28.26,0,0,0,7.54,8.55,45.68,45.68,0,0,0,10.35,5.85Q59.62,68,65.48,69.77L92.7,78.32c2.85.9,6.45,2.11,10.8,3.6a48.58,48.58,0,0,1,12.71,6.75,39.16,39.16,0,0,1,10.58,11.93q4.38,7.43,4.38,18.9a52.49,52.49,0,0,1-3.93,20.14,50.44,50.44,0,0,1-11.36,16.87,55.81,55.81,0,0,1-18,11.7A61.72,61.72,0,0,1,74,172.6c-3.14,0-5.92,0-8.32-.11a62.55,62.55,0,0,1-6.75-.57q-3.15-.45-6.3-1a65.11,65.11,0,0,1-7-1.69c-3-.9-6.22-1.94-9.67-3.15a28.31,28.31,0,0,0-9-1.8c-2.25,0-3.79.45-4.61,1.35a11.75,11.75,0,0,0-2.14,3.6H16.88Z"/><path class="cls-1" d="M190.8,166.07h25V12.17H202.72A74.49,74.49,0,0,0,192.6,13a29,29,0,0,0-11.36,4.39q-5.75,3.6-11,11.36T161.1,50.2h-2.48V9h136.8V50.2H293q-3.82-13.73-9.11-21.49t-11-11.36A29,29,0,0,0,261.45,13a74.63,74.63,0,0,0-10.13-.79h-13v153.9h25v3.15H190.8Z"/><path class="cls-1" d="M317,88.9a78.32,78.32,0,0,1,7.09-33.3,92.75,92.75,0,0,1,18.22-26.55,85.1,85.1,0,0,1,25.09-17.66A66.24,66.24,0,0,1,395.32,5a69,69,0,0,1,28.92,6.42,83.16,83.16,0,0,1,25.08,17.66A87.06,87.06,0,0,1,467,55.6a82.85,82.85,0,0,1,6.63,33.3,81.72,81.72,0,0,1-6.07,30.82A89.42,89.42,0,0,1,450.9,146.5,84.44,84.44,0,0,1,426,165.4a67.34,67.34,0,0,1-30.72,7.2,70.77,70.77,0,0,1-31.27-7,80,80,0,0,1-24.86-18.56,85.19,85.19,0,0,1-16.32-26.77A86.63,86.63,0,0,1,317,88.9Zm25.88,0a202.58,202.58,0,0,0,2.7,35.32q2.7,15.08,9,25.2a40,40,0,0,0,16.2,15.08q9.9,5,24.52,4.95,14.4,0,24.42-4.95a39.84,39.84,0,0,0,16.31-15.08q6.3-10.12,9-25.2a202.58,202.58,0,0,0,2.7-35.32,217.28,217.28,0,0,0-2-30A82.08,82.08,0,0,0,438,33a46.16,46.16,0,0,0-16-18.12q-10.25-6.75-26.67-6.75t-26.66,6.75a46.08,46.08,0,0,0-16,18.12,82.09,82.09,0,0,0-7.77,25.87A217.3,217.3,0,0,0,342.9,88.9Z"/><path class="cls-1" d="M495.67,166.07h25V12.17h-25V9h72.45v3.15h-25v153.9h40.05q19.8,0,31-12.37T630.67,120h2.47v49.27H495.67Z"/><path class="cls-1" d="M661.27,166.07h25V12.17h-13a74.51,74.51,0,0,0-10.13.79,29,29,0,0,0-11.36,4.39q-5.75,3.6-11,11.36T631.57,50.2h-2.48V9h136.8V50.2h-2.47q-3.82-13.73-9.11-21.49t-11-11.36A29,29,0,0,0,731.92,13a74.63,74.63,0,0,0-10.13-.79h-13v153.9h25v3.15H661.27Z"/><path class="cls-1" d="M798.07,9H905.39l-94.27,157h49.5q11.25,0,17.32-3.26a49.38,49.38,0,0,0,10.8-7.76q4.95-4.5,10.13-13.73A73.34,73.34,0,0,0,906.52,120H909v49.27H784.57l93.82-157H843.52q-18.22,0-28.35,9.57T800.54,48.17h-2.47Z"/><path class="cls-1" d="M927,166.07h25V12.17H927V9h128.7V48h-2.47a113.93,113.93,0,0,0-6.3-15.41,42.25,42.25,0,0,0-8.1-11.25,29.71,29.71,0,0,0-11.25-6.87,48.93,48.93,0,0,0-15.75-2.25H974.47V81.7h14.62a50.61,50.61,0,0,0,12.6-1.35,19.26,19.26,0,0,0,8.89-5.06,30.19,30.19,0,0,0,6.3-10.13,124.69,124.69,0,0,0,5.06-16.54h2.48v70h-2.48q-1.58-6.52-3.26-12.6A39.28,39.28,0,0,0,1014,95.2a22.34,22.34,0,0,0-8.1-7.54q-5.05-2.8-13.16-2.81H974.47v81.22H1017q12.38,0,20.59-5.28a48.3,48.3,0,0,0,13.39-12.6,54.93,54.93,0,0,0,7.65-15.19,80.89,80.89,0,0,0,3.15-13h2.47v49.27H927Z"/></svg>
