<svg id="Layer_1" data-name="Layer 1" xmlns="http://www.w3.org/2000/svg" width="928" height="183" viewBox="0 0 928 183"><defs><style>.cls-1{fill:#fff;}</style></defs><title>Artboard 1</title><path class="cls-1" d="M112.59,123.22q0,21.27-15.31,33.51T54.69,169q-25.14,0-44.47-9.45V128.59a184.85,184.85,0,0,0,26.91,10,79.75,79.75,0,0,0,20.14,2.9q10.95,0,16.81-4.19t5.85-12.46a13.75,13.75,0,0,0-2.57-8.22,28.9,28.9,0,0,0-7.58-6.93q-5-3.33-20.35-10.63-14.4-6.76-21.6-13a48.84,48.84,0,0,1-11.49-14.5A41.46,41.46,0,0,1,12,52.21q0-20.83,14.13-32.76T65.22,7.52a92.35,92.35,0,0,1,23.36,2.9,161.34,161.34,0,0,1,23.26,8.17L101.1,44.48a156.78,156.78,0,0,0-20.79-7.2,67,67,0,0,0-16.17-2q-9.45,0-14.5,4.4a14.53,14.53,0,0,0-5,11.5,14.26,14.26,0,0,0,2,7.68,22.64,22.64,0,0,0,6.5,6.34q4.45,3.06,21.11,11,22,10.53,30.19,21.1T112.59,123.22Z"/><path class="cls-1" d="M201.64,166.83h-33.3V37.49H125.7V9.78H244.29V37.49H201.64Z"/><path class="cls-1" d="M411,88.09q0,39-19.34,59.94T336.24,169q-36.09,0-55.43-20.95T261.48,87.88q0-39.21,19.39-59.89T336.46,7.31q36.19,0,55.37,20.84T411,88.09Zm-114.62,0q0,26.32,10,39.64t29.86,13.32q39.86,0,39.86-53T336.46,35q-19.87,0-30,13.38T296.39,88.09Z"/><path class="cls-1" d="M443.56,166.83V9.78h33.3V139.33h63.7v27.5Z"/><path class="cls-1" d="M628.43,166.83h-33.3V37.49H552.48V9.78h118.6V37.49H628.43Z"/><path class="cls-1" d="M797.62,166.83H680.75V145.24l75.3-108H682.79V9.78H795.58V31.26l-75.2,108.07h77.24Z"/><path class="cls-1" d="M913.1,166.83H822.65V9.78H913.1V37.06H856V71.55h53.17V98.83H856v40.5H913.1Z"/></svg>
