<svg id="Layer_1" data-name="Layer 1" xmlns="http://www.w3.org/2000/svg" width="336" height="154" viewBox="0 0 336 154"><defs><style>.cls-1{fill:#fff;}</style></defs><title>kob</title><path class="cls-1" d="M55.29,10.94V13H41.85V59.71H43L87.7,13H73V10.94h29.2V13H90.47L57.91,47.15l50.52,65.7h9v2.05H68.72v-2.05H81.86L43,61.75H41.85v51.1H55.29v2.05h-48v-2.05H20.68V13H7.25V10.94Z"/><path class="cls-1" d="M137.92,101.9a52.48,52.48,0,0,1-9-10.87A53.82,53.82,0,0,1,123,78a50.44,50.44,0,0,1-2.12-14.75,49.52,49.52,0,0,1,5-22.48,57.64,57.64,0,0,1,30.58-28.25,51.8,51.8,0,0,1,19.13-3.87A54,54,0,0,1,199,14L206.1-.15l2.05,1-7.16,14a58.91,58.91,0,0,1,11.47,7.88,51.89,51.89,0,0,1,9.27,10.73,52.68,52.68,0,0,1,8.46,29.27,49.92,49.92,0,0,1-4.45,20.81,57.36,57.36,0,0,1-12,17.3,56.74,56.74,0,0,1-17.38,11.75,51.36,51.36,0,0,1-20.8,4.31,53.57,53.57,0,0,1-24.24-5.69l-7.44,14.45-2-1,7.6-14.6A56.52,56.52,0,0,1,137.92,101.9Zm50.23-89.35a36.45,36.45,0,0,0-12.56-1.9q-10.22,0-16.35,3.87a24.67,24.67,0,0,0-9.35,10.88A53.39,53.39,0,0,0,145.66,42a202.28,202.28,0,0,0-1,21.17,144.69,144.69,0,0,0,1.82,25.41q1.83,9.93,5.77,16.06L196.76,18.1A22.86,22.86,0,0,0,188.15,12.55ZM162.81,113.14a41.14,41.14,0,0,0,12.78,1.76q10.8,0,16.94-4a24.55,24.55,0,0,0,9.19-11.09A53,53,0,0,0,205.59,83q.81-9.72.81-21.1,0-6.42-.22-12.48a103.16,103.16,0,0,0-1-11.46,54.33,54.33,0,0,0-2.4-10,28.13,28.13,0,0,0-4.38-8.1l-44.68,86.87A19.34,19.34,0,0,0,162.81,113.14Z"/><path class="cls-1" d="M241.43,13V10.94h22.05q6.13,0,12.12-.21t12.12-.22a66.32,66.32,0,0,1,12,1.16,39.82,39.82,0,0,1,11.46,3.95,24.83,24.83,0,0,1,8.54,7.44,19.51,19.51,0,0,1,3.36,11.68,17,17,0,0,1-3.29,10.59,27.76,27.76,0,0,1-7.95,7.08,41.59,41.59,0,0,1-9.71,4.23,56.25,56.25,0,0,1-8.54,1.9v.58A77.89,77.89,0,0,1,305.38,61a38.39,38.39,0,0,1,11.24,4.6,26.89,26.89,0,0,1,8.47,8.25q3.36,5.11,3.36,12.85,0,8.48-4.31,14a31.43,31.43,0,0,1-10.51,8.77A46.18,46.18,0,0,1,300.42,114a72.52,72.52,0,0,1-12.56,1.24q-6.12,0-12.19-.15t-12.19-.14H241.43v-2.05h13.44V13ZM282,58.1q6.57,0,10.37-1.75a12.92,12.92,0,0,0,5.69-4.74,16.61,16.61,0,0,0,2.41-6.79,58.05,58.05,0,0,0,.51-7.74,60.16,60.16,0,0,0-.87-11,20.16,20.16,0,0,0-2.92-7.6A12.27,12.27,0,0,0,291.59,14a24.48,24.48,0,0,0-9.13-1.46q-1.6,0-3.21.15L276,13V58.1Zm2.48,55.19a29.75,29.75,0,0,0,8.4-1.09,13.12,13.12,0,0,0,6.35-4.16,21,21,0,0,0,4-8.55,60.74,60.74,0,0,0,1.38-14.38,64.49,64.49,0,0,0-.44-6.64,25,25,0,0,0-2.4-8.25,19.34,19.34,0,0,0-6-7.08q-4-3-11.32-3H276v52.7A77.17,77.17,0,0,0,284.5,113.29Z"/></svg>
