<svg id="Layer_1" data-name="Layer 1" xmlns="http://www.w3.org/2000/svg" width="901" height="154" viewBox="0 0 901 154"><defs><style>.cls-1{fill:#fff;}</style></defs><title>Artboard 2</title><path class="cls-1" d="M123,140.23H91.17L56.58,84.59,44.74,93.08v47.15h-28V8.17h28V68.6l11-15.54L91.54,8.17h31.07L76.54,66.61Z"/><path class="cls-1" d="M259.46,74q0,32.79-16.26,50.4T196.59,142q-30.34,0-46.61-17.62T133.72,73.84q0-33,16.31-50.36T196.77,6.09q30.45,0,46.57,17.52T259.46,74Zm-96.38,0q0,22.13,8.4,33.33t25.11,11.2q33.51,0,33.52-44.53T196.77,29.39q-16.71,0-25.2,11.25T163.08,74Z"/><path class="cls-1" d="M404,140.23H368.4L311,40.32h-.81q1.71,26.48,1.72,37.76v62.15h-25V8.17h35.32l57.36,98.91h.64q-1.36-25.74-1.36-36.4V8.17H404Z"/><path class="cls-1" d="M488.18,140.23h-28V31.47H424.32V8.17h99.73v23.3H488.18Z"/><path class="cls-1" d="M625.22,140.23l-9.58-31.44H567.5l-9.58,31.44H527.75L574.36,7.62H608.6l46.79,132.61ZM609,85.31Q595.68,42.58,594,37c-1.12-3.73-1.91-6.68-2.4-8.85q-3,11.57-17.07,57.18Z"/><path class="cls-1" d="M778.24,140.23h-31.8L711.85,84.59,700,93.08v47.15H672V8.17h28V68.6l11-15.54L746.8,8.17h31.08L731.81,66.61Z"/><path class="cls-1" d="M845.81,140.23h-28V31.47H781.94V8.17h99.73v23.3H845.81Z"/></svg>
