<svg id="Layer_1" data-name="Layer 1" xmlns="http://www.w3.org/2000/svg" width="901" height="154" viewBox="0 0 901 154"><defs><style>.cls-1{fill:#fff;}</style></defs><title>kontakt</title><path class="cls-1" d="M7.46,139.48H27.22V17.72H7.46V15.23H63.35v2.49H45V74.33H46.8l53.75-56.61H82V15.23h36.85v2.49H104.11L58.9,65.61l64.62,73.87h11.74V142H83.82v-2.49h16L46.44,76.82H45v62.66H63.35V142H7.46Z"/><path class="cls-1" d="M136.33,78.42a61.87,61.87,0,0,1,5.61-26.34,73.42,73.42,0,0,1,14.42-21,67.28,67.28,0,0,1,19.85-14A52.44,52.44,0,0,1,198.28,12a54.61,54.61,0,0,1,22.87,5.07,66,66,0,0,1,19.85,14,69,69,0,0,1,14,21,65.48,65.48,0,0,1,5.25,26.34,64.78,64.78,0,0,1-4.8,24.39A70.8,70.8,0,0,1,242.24,124a66.62,66.62,0,0,1-19.67,15,53.17,53.17,0,0,1-24.29,5.7,56,56,0,0,1-24.74-5.52,63.4,63.4,0,0,1-19.67-14.68A67.37,67.37,0,0,1,141,103.25,68.39,68.39,0,0,1,136.33,78.42Zm20.47,0a160.78,160.78,0,0,0,2.14,28q2.13,11.92,7.12,19.93a31.59,31.59,0,0,0,12.82,11.93q7.83,3.92,19.4,3.92,11.39,0,19.31-3.92A31.56,31.56,0,0,0,230.5,126.3q5-8,7.12-19.93a160.86,160.86,0,0,0,2.13-27.95,171.42,171.42,0,0,0-1.6-23.76A65.29,65.29,0,0,0,232,34.19a36.59,36.59,0,0,0-12.64-14.33q-8.1-5.34-21.09-5.34t-21.1,5.34a36.49,36.49,0,0,0-12.63,14.33,65,65,0,0,0-6.15,20.47A173,173,0,0,0,156.8,78.42Z"/><path class="cls-1" d="M276.06,139.48h19.76V17.72H276.06V15.23h38.09l60.17,97h.35V17.72H354.91V15.23H397.1v2.49H377.34V144.46h-3.56L298.84,25h-.35V139.48h19.76V142H276.06Z"/><path class="cls-1" d="M433.05,139.48h19.76V17.72H442.49a57.54,57.54,0,0,0-8,.63,22.93,22.93,0,0,0-9,3.47,30.66,30.66,0,0,0-8.72,9q-4.18,6.14-7.21,17h-2V15.23H515.82V47.81h-2q-3-10.86-7.21-17a30.81,30.81,0,0,0-8.73-9,22.94,22.94,0,0,0-9-3.47,57.77,57.77,0,0,0-8-.63H470.61V139.48h19.76V142H433.05Z"/><path class="cls-1" d="M509.06,139.48h15.66L572.78,12h4.27l48.42,127.45h15.84V142H586.49v-2.49h19.76L587.56,90h-41.3l-18.69,49.49h19.76V142H509.06ZM566.91,35.7,547.33,87.5h39.16Z"/><path class="cls-1" d="M646.47,139.48h19.76V17.72H646.47V15.23h55.9v2.49H684V74.33h1.78l53.76-56.61H721.06V15.23H757.9v2.49H743.13L697.92,65.61l64.61,73.87h11.75V142H722.84v-2.49h16l-53.4-62.66H684v62.66h18.34V142h-55.9Z"/><path class="cls-1" d="M805.25,139.48H825V17.72H814.68a57.77,57.77,0,0,0-8,.63,22.94,22.94,0,0,0-9,3.47,30.81,30.81,0,0,0-8.73,9q-4.19,6.14-7.21,17h-2V15.23H888V47.81h-2q-3-10.86-7.21-17a30.79,30.79,0,0,0-8.72-9,22.93,22.93,0,0,0-9-3.47,57.77,57.77,0,0,0-8-.63H842.81V139.48h19.76V142H805.25Z"/></svg>
