<svg id="Layer_1" data-name="Layer 1" xmlns="http://www.w3.org/2000/svg" width="1920" height="1080" viewBox="0 0 1920 1080"><defs><style>.cls-1{fill:#fff;}</style></defs><title>Artboard 2</title><path class="cls-1" d="M527,578.23h-31.8l-34.59-55.64-11.84,8.49v47.15h-28V446.17h28V506.6l11-15.54,35.78-44.89h31.07l-46.07,58.44Z"/><path class="cls-1" d="M663.46,512q0,32.79-16.26,50.4T600.59,580q-30.35,0-46.61-17.62t-16.26-50.58q0-33,16.31-50.36t46.74-17.39q30.45,0,46.57,17.52T663.46,512Zm-96.38,0q0,22.13,8.4,33.33t25.11,11.2q33.51,0,33.52-44.53t-33.34-44.63q-16.71,0-25.2,11.25T567.08,512Z"/><path class="cls-1" d="M808,578.23H772.4L715,478.32h-.81q1.71,26.48,1.72,37.76v62.15h-25V446.17h35.32l57.36,98.91h.64q-1.36-25.74-1.36-36.4V446.17H808Z"/><path class="cls-1" d="M892.18,578.23h-28V469.47H828.32v-23.3h99.73v23.3H892.18Z"/><path class="cls-1" d="M1029.22,578.23l-9.58-31.44H971.5l-9.58,31.44H931.75l46.61-132.61h34.24l46.79,132.61ZM1013,523.31Q999.69,480.58,998,475c-1.12-3.73-1.91-6.68-2.4-8.85q-3,11.56-17.07,57.18Z"/><path class="cls-1" d="M1182.24,578.23h-31.8l-34.59-55.64L1104,531.08v47.15h-28V446.17h28V506.6l11-15.54,35.77-44.89h31.08l-46.07,58.44Z"/><path class="cls-1" d="M1249.81,578.23h-28V469.47h-35.87v-23.3h99.73v23.3h-35.86Z"/></svg>
