<svg id="Layer_1" data-name="Layer 1" xmlns="http://www.w3.org/2000/svg" width="336" height="154" viewBox="0 0 336 154"><defs><style>.cls-1{fill:#fff;}</style></defs><title>om</title><path class="cls-1" d="M15.27,49A73,73,0,0,1,54,13.24a65.58,65.58,0,0,1,24.24-4.9,71.46,71.46,0,0,1,47.45,18.5,68.82,68.82,0,0,1,15.72,21.55,65.83,65.83,0,0,1,6,28.58,63.3,63.3,0,0,1-5.65,26.36,72.19,72.19,0,0,1-37.18,36.82,65.1,65.1,0,0,1-26.36,5.46A67.18,67.18,0,0,1,52,140.33a70.63,70.63,0,0,1-37.38-36A63.11,63.11,0,0,1,8.89,77.53,62.86,62.86,0,0,1,15.27,49Zm26,60.4q2.22,12.68,6.93,20.16a25.32,25.32,0,0,0,12.21,10.46,48.65,48.65,0,0,0,17.86,3q13.68,0,21.45-5.09a31.11,31.11,0,0,0,11.66-14.06,67.51,67.51,0,0,0,4.9-21.28q1-12.3,1-26.73,0-12.94-.83-24.7a63.35,63.35,0,0,0-4.72-20.72A32.1,32.1,0,0,0,100,16.2q-7.86-5.28-21.73-5.27-13,0-20.73,4.9A31.27,31.27,0,0,0,45.71,29.61,67.39,67.39,0,0,0,40.34,50.7,256.39,256.39,0,0,0,39,77.53Q39,96.76,41.27,109.44Z"/><path class="cls-1" d="M209.06,11.3l32,92.13h.37L274,11.3h46.25v2.59h-17V140.43h17V143H259.56v-2.59H276.4V13.89H276L230.52,143h-3L181.86,13.89h-.37V140.43h17V143h-37v-2.59h17V13.89h-17V11.3Z"/></svg>
