<svg id="Layer_1" data-name="Layer 1" xmlns="http://www.w3.org/2000/svg" width="336" height="154" viewBox="0 0 336 154"><defs><style>.cls-1{fill:#fff;}</style></defs><title>Artboard 4</title><path class="cls-1" d="M136.61,74q0,32.79-16.26,50.4T73.74,142q-30.34,0-46.61-17.62T10.87,73.84q0-33,16.3-50.36T73.92,6.09q30.43,0,46.57,17.52T136.61,74ZM40.23,74q0,22.13,8.4,33.33t25.11,11.2q33.51,0,33.51-44.53T73.92,29.39q-16.71,0-25.2,11.25T40.23,74Z"/><path class="cls-1" d="M219.9,140.23,188.1,36.62h-.81Q189,68.24,189,78.81v61.42H164V8.17H202.1l31.26,101h.54l33.15-101h38.12V140.23h-26.1V77.72q0-4.43.13-10.21t1.22-30.71h-.81L245.55,140.23Z"/></svg>
