<svg id="Layer_1" data-name="Layer 1" xmlns="http://www.w3.org/2000/svg" width="1072" height="183" viewBox="0 0 1072 183"><defs><style>.cls-1{fill:#fff;}</style></defs><title>smykker</title><path class="cls-1" d="M15.76,107.8q.39,2.42,1.41,6.36a60.11,60.11,0,0,0,2.93,8.48,68.17,68.17,0,0,0,4.85,9.3,43.93,43.93,0,0,0,7.17,8.78,41.37,41.37,0,0,0,9,7.07,38.28,38.28,0,0,0,8.28,3.54,31,31,0,0,0,7.47,1.21q3.54.11,6.57.1,10.7,0,17.57-3.33a31.19,31.19,0,0,0,10.81-8.18,29.85,29.85,0,0,0,5.55-10.2,33,33,0,0,0,1.62-9.4q0-7.47-3.54-12.32a28.29,28.29,0,0,0-9.39-8.08,67.53,67.53,0,0,0-13.33-5.45L57.37,91.13A147.71,147.71,0,0,1,42,85.68,51.14,51.14,0,0,1,28.68,77.6a37.06,37.06,0,0,1-9.39-12.22q-3.54-7.27-3.53-18.18a35.22,35.22,0,0,1,3.63-15.56,42.65,42.65,0,0,1,10.1-13.23A51.12,51.12,0,0,1,44.94,9.12a53,53,0,0,1,19.5-3.54A50.33,50.33,0,0,1,76.15,6.8c3.37.8,6.33,1.65,8.89,2.52s4.82,1.72,6.77,2.53a14.28,14.28,0,0,0,5.35,1.21c1.89,0,3.13-.3,3.74-.91a11.18,11.18,0,0,0,1.92-3.33h3.23V47.2h-2.63Q101,40.12,98.27,33.26a51.45,51.45,0,0,0-7-12.42,32.2,32.2,0,0,0-10.7-9Q74.14,8.42,64.24,8.41A41.87,41.87,0,0,0,50,10.63a33.29,33.29,0,0,0-10.41,5.86,26,26,0,0,0-6.46,8.08,20,20,0,0,0-2.22,9.09,18.1,18.1,0,0,0,3.73,11.72,32.32,32.32,0,0,0,9.8,8,74.59,74.59,0,0,0,13.84,5.75q7.77,2.43,16,5t16,5.76a54.74,54.74,0,0,1,13.84,8,38.38,38.38,0,0,1,9.8,11.72q3.73,6.87,3.73,17a44.77,44.77,0,0,1-4,18.79,46.78,46.78,0,0,1-11.41,15.55,56,56,0,0,1-17.57,10.61,62.57,62.57,0,0,1-22.73,3.94,64.87,64.87,0,0,1-12.42-1.21q-6.16-1.22-11.51-2.53c-3.57-.87-6.74-1.72-9.5-2.52A24.58,24.58,0,0,0,22.22,148a6.92,6.92,0,0,0-4,.91A8.1,8.1,0,0,0,16,152.64H12.73V107.8Z"/><path class="cls-1" d="M189.68,8.82l34.94,100.59H225L260.58,8.82h50.5v2.82H292.5V149.81h18.58v2.83H244.82v-2.83h18.39V11.64h-.41l-49.69,141h-3.23L160,11.64h-.4V149.81h18.58v2.83h-40.4v-2.83h18.59V11.64H137.76V8.82Z"/><path class="cls-1" d="M380,8.82v2.82H364l41.21,70.5,37.17-70.5H424.8V8.82h38.59v2.82H445.81l-39,74.14v64h18.78v2.83H359v-2.83h18.59V93.45L330.67,11.64H314.92V8.82Z"/><path class="cls-1" d="M535.1,8.82v2.82H516.51V76.28h1.62l61.81-64.64h-20.4V8.82h40.4v2.82H583.78l-45,47.27,69.89,90.9h12.53v2.83H553.68v-2.83h18.18l-53.73-70.7h-1.62v70.7H535.1v2.83H468.64v-2.83h18.58V11.64H468.64V8.82Z"/><path class="cls-1" d="M692.25,8.82v2.82H673.67V76.28h1.61l61.81-64.64h-20.4V8.82h40.4v2.82H740.93l-45,47.27,69.89,90.9H778.3v2.83H710.83v-2.83H729l-53.73-70.7h-1.61v70.7h18.58v2.83H625.79v-2.83h18.59V11.64H625.79V8.82Z"/><path class="cls-1" d="M902.73,8.82V43.36h-2.62a71.64,71.64,0,0,0-3.44-8.79,43.56,43.56,0,0,0-6.76-10.4,39.7,39.7,0,0,0-11.21-8.79q-6.87-3.74-16.77-3.74H829.81V74.06h11.32a33.06,33.06,0,0,0,12.62-2.12,22.54,22.54,0,0,0,8.58-6.06A32.78,32.78,0,0,0,868,56.39,74,74,0,0,0,871.63,44h2.62v62.83h-2.62q-1.43-5.87-3.34-11.32a33.73,33.73,0,0,0-5.15-9.59,23.59,23.59,0,0,0-8-6.57,25.87,25.87,0,0,0-11.81-2.42H829.81v72.92h33.13a43,43,0,0,0,16.77-3.13,41.47,41.47,0,0,0,13.23-8.79,50,50,0,0,0,9.59-13.23,71.93,71.93,0,0,0,5.86-16.26H911v44.24H781.94v-2.83h18.58V11.64H781.94V8.82Z"/><path class="cls-1" d="M927.38,11.64V8.82h30.5q8.48,0,16.76-.31t16.77-.3a92,92,0,0,1,16.66,1.62,54.12,54.12,0,0,1,16.06,5.55,35,35,0,0,1,12,10.61q4.75,6.66,4.75,16.76a25.34,25.34,0,0,1-3.64,13.84,29.65,29.65,0,0,1-9.39,9.39A46.63,46.63,0,0,1,1015,71.54a79.56,79.56,0,0,1-13.93,2.52v1q9.89,1.82,17.67,3.64a42.63,42.63,0,0,1,13.43,5.45,25.75,25.75,0,0,1,9,10.1q3.33,6.46,4.14,17.37,1,12.74,1.62,20.41a70.55,70.55,0,0,0,1.72,11.92c.74,2.82,1.74,4.71,3,5.65a9.28,9.28,0,0,0,5.55,1.41,9.7,9.7,0,0,0,6.67-2.32q2.63-2.31,4.64-4.34l2,1.82c-1.34,1.34-2.66,2.59-3.94,3.73a18.8,18.8,0,0,1-4.44,2.93,25.45,25.45,0,0,1-6.16,1.92,48.81,48.81,0,0,1-9.09.71q-11.12,0-17.37-3.54a23.87,23.87,0,0,1-9.29-8.78,29.26,29.26,0,0,1-3.74-11.42c-.48-4.1-.78-8-.91-11.61q-.4-8.28-1.11-16.06a45.19,45.19,0,0,0-3.33-13.84,22.36,22.36,0,0,0-7.88-9.69q-5.26-3.65-14.75-3.64H975.25v72.92h18.58v2.83H927.38v-2.83H946V11.64Zm56.15,62.42q9.09,0,14.34-2.42a17.85,17.85,0,0,0,7.88-6.57,23,23,0,0,0,3.33-9.39,80.39,80.39,0,0,0,.71-10.71,82.69,82.69,0,0,0-1.21-15.25,27.74,27.74,0,0,0-4-10.5,16.94,16.94,0,0,0-7.78-6.16,33.65,33.65,0,0,0-12.62-2c-1.49,0-3,.07-4.45.2l-4.44.4V74.06Z"/></svg>
