<svg id="Layer_1" data-name="Layer 1" xmlns="http://www.w3.org/2000/svg" width="1072" height="183" viewBox="0 0 1072 183"><title>stoltze - logo</title><path d="M16.69,113.79c.29,1.71.78,3.95,1.5,6.74a64.68,64.68,0,0,0,3.1,9,72.91,72.91,0,0,0,5.14,9.85,46.91,46.91,0,0,0,7.6,9.31,44.29,44.29,0,0,0,9.52,7.49,40.89,40.89,0,0,0,8.77,3.74,32.33,32.33,0,0,0,7.92,1.29q3.75.1,7,.1,11.34,0,18.61-3.53a32.89,32.89,0,0,0,11.45-8.67,31.74,31.74,0,0,0,5.89-10.8,35.12,35.12,0,0,0,1.71-9.95q0-7.92-3.74-13.06a30.19,30.19,0,0,0-10-8.56A72,72,0,0,0,77,100.94L60.78,96.13a154.52,154.52,0,0,1-16.27-5.78,53.79,53.79,0,0,1-14.12-8.56,38.85,38.85,0,0,1-9.95-13q-3.75-7.7-3.75-19.26a37.32,37.32,0,0,1,3.85-16.47,45.2,45.2,0,0,1,10.7-14A54,54,0,0,1,47.62,9.25,55.82,55.82,0,0,1,68.27,5.5,53.35,53.35,0,0,1,80.68,6.79Q86,8.07,90.09,9.46t7.17,2.67a14.93,14.93,0,0,0,5.67,1.29q3,0,4-1a11.48,11.48,0,0,0,2-3.54h3.42V49.58h-2.78Q107,42.1,104.11,34.82a54.91,54.91,0,0,0-7.38-13.16,34.51,34.51,0,0,0-11.34-9.53Q78.54,8.5,68.05,8.5A44.4,44.4,0,0,0,53,10.85a35,35,0,0,0-11,6.21,27.42,27.42,0,0,0-6.84,8.56,21.19,21.19,0,0,0-2.36,9.63,19.17,19.17,0,0,0,4,12.41,34.28,34.28,0,0,0,10.38,8.45,79,79,0,0,0,14.66,6.1Q70,64.78,78.65,67.56t16.9,6.1a58,58,0,0,1,14.66,8.45,40.75,40.75,0,0,1,10.38,12.41q4,7.29,4,18a47.56,47.56,0,0,1-4.28,19.9,50,50,0,0,1-12.09,16.48,59.48,59.48,0,0,1-18.62,11.24,66.43,66.43,0,0,1-24.08,4.17A67.72,67.72,0,0,1,52.32,163q-6.52-1.27-12.19-2.67t-10.06-2.67a26,26,0,0,0-6.53-1.29,7.31,7.31,0,0,0-4.28,1,8.59,8.59,0,0,0-2.35,4H13.48v-47.5Z"/><path d="M190.89,11.92a56.61,56.61,0,0,0-14.13,1.61,29.25,29.25,0,0,0-11.13,5.56,36.05,36.05,0,0,0-8.77,11,92.4,92.4,0,0,0-7.06,18H147V8.92H281.19V48.09h-2.78a92.4,92.4,0,0,0-7.06-18,36.05,36.05,0,0,0-8.77-11,29.32,29.32,0,0,0-11.13-5.56,56.61,56.61,0,0,0-14.13-1.61h-7.7V158.3h19.69v3H178.9v-3h19.69V11.92Z"/><path d="M305.91,52.58a84.55,84.55,0,0,1,44.83-41.41,75.93,75.93,0,0,1,28-5.67,82.61,82.61,0,0,1,54.89,21.4,79.64,79.64,0,0,1,18.19,24.93q6.94,14.67,6.95,33.07a73.24,73.24,0,0,1-6.52,30.49,84.41,84.41,0,0,1-17.55,25.36A83.22,83.22,0,0,1,409.27,158a75.45,75.45,0,0,1-30.49,6.31,77.77,77.77,0,0,1-30.39-6.1,81.58,81.58,0,0,1-43.23-41.62,73,73,0,0,1-6.63-31A72.68,72.68,0,0,1,305.91,52.58ZM336,122.45q2.56,14.67,8,23.33a29.2,29.2,0,0,0,14.13,12.09q8.65,3.42,20.65,3.42,15.83,0,24.82-5.88a36,36,0,0,0,13.48-16.27,77.76,77.76,0,0,0,5.67-24.61q1.19-14.22,1.18-30.92,0-15-1-28.57a73,73,0,0,0-5.46-24A37.19,37.19,0,0,0,403.92,14.6q-9.09-6.1-25.14-6.1-15,0-24,5.67a36.15,36.15,0,0,0-13.7,15.94,78,78,0,0,0-6.2,24.4,295.15,295.15,0,0,0-1.5,31Q333.41,107.8,336,122.45Z"/><path d="M548.05,8.92v3H528.36V158.3h35.31a45.39,45.39,0,0,0,14.23-2.36,39.16,39.16,0,0,0,13.48-7.81A54.63,54.63,0,0,0,602.72,134a74.2,74.2,0,0,0,7.82-21.08h2.78v48.36H477.64v-3h19.69V11.92H477.64v-3Z"/><path d="M674.52,11.92a56.61,56.61,0,0,0-14.13,1.61,29.14,29.14,0,0,0-11.12,5.56,35.92,35.92,0,0,0-8.78,11,92.4,92.4,0,0,0-7.06,18h-2.78V8.92H764.83V48.09H762a92.4,92.4,0,0,0-7.06-18,35.9,35.9,0,0,0-8.77-11,29.25,29.25,0,0,0-11.13-5.56A56.59,56.59,0,0,0,721,11.92h-7.71V158.3h19.69v3h-70.4v-3h19.68V11.92Z"/><path d="M836.73,11.92a43.66,43.66,0,0,0-15,2.35,35,35,0,0,0-11.24,6.64,44.42,44.42,0,0,0-8.45,10.27,107.77,107.77,0,0,0-6.85,13.48h-2.78V8.92H903.28L816.83,158.3h38.73A57.55,57.55,0,0,0,872,155.94a42.25,42.25,0,0,0,14.66-7.81A50.67,50.67,0,0,0,898.47,134a74.5,74.5,0,0,0,7.81-21.08h2.78v48.36H780.45l86-149.37Z"/><path d="M1055.65,8.92v36.6h-2.78a76.32,76.32,0,0,0-3.64-9.31,46.12,46.12,0,0,0-7.17-11,41.77,41.77,0,0,0-11.88-9.31q-7.28-4-17.76-4h-34V78.05h12a35.08,35.08,0,0,0,13.37-2.25,24,24,0,0,0,9.1-6.42,34.86,34.86,0,0,0,6-10.06,77.57,77.57,0,0,0,3.85-13.16h2.79v66.55h-2.79a122.56,122.56,0,0,0-3.53-12,35.4,35.4,0,0,0-5.45-10.16,25.06,25.06,0,0,0-8.46-7A27.36,27.36,0,0,0,992.73,81H978.4V158.3h35.09a45.59,45.59,0,0,0,17.76-3.32,44,44,0,0,0,14-9.31,53.22,53.22,0,0,0,10.17-14,76.78,76.78,0,0,0,6.2-17.22h2.78v46.86H927.68v-3h19.69V11.92H927.68v-3Z"/></svg>
